# xmcd
#
# Track frame offsets: 
#        150
#        8153
#        22815
#        38517
#        58049
#        68693
#        85582
#        99743
#        116223
#        126952
#        142756
#        156522
#        168237
#        183818
#
# Disc length: 2747 seconds
#
# Revision: 0
# Processed by: cddbd v1.5.2PL0 Copyright (c) Steve Scherf et al.
# Submitted via: ExactAudioCopy v0.95b3
#
DISCID=a90ab90e
DTITLE=DJ Komori - R&B Mix vol. 13 - Lots of Lovin - Disc B
DYEAR=2008
DGENRE=R&B
TTITLE0=Tony Rich Project - Nobody Knows
TTITLE1=Eric. C - Change The World
TTITLE2=Gabrielle - I Wish
TTITLE3=Boyz 2 Men - Human 2 (Don't Turn Your Back On Me)
TTITLE4=Fantasia - Truth Is
TTITLE5=Changing Faces - Keep It Right There (Remix)
TTITLE6=Babyface - Whip Appeal 
TTITLE7=Bobby Brown - Roni
TTITLE8=Atlantic Star - Unconditional Love
TTITLE9=Johnny Gill  - My My My
TTITLE10=Charlie Wilson - Let's Chill
TTITLE11=Tyrese - What Am I Gonna Do
TTITLE12=Ola Onabule - The Pictures (Rnb Mix)
TTITLE13=Beverley - You Came Along
EXTD=
EXTT0=
EXTT1=
EXTT2=
EXTT3=
EXTT4=
EXTT5=
EXTT6=
EXTT7=
EXTT8=
EXTT9=
EXTT10=
EXTT11=
EXTT12=
EXTT13=
PLAYORDER=
